<?xml version="1.0" encoding="UTF-8" standalone="no"?>
<svg
   xmlns:dc="http://purl.org/dc/elements/1.1/"
   xmlns:cc="http://creativecommons.org/ns#"
   xmlns:rdf="http://www.w3.org/1999/02/22-rdf-syntax-ns#"
   xmlns:svg="http://www.w3.org/2000/svg"
   xmlns="http://www.w3.org/2000/svg"
   viewBox="0 0 209.75 209.75"
   height="209.75"
   width="209.75"
   xml:space="preserve"
   version="1.1"
   id="svg2"><metadata
     id="metadata8"><rdf:RDF><cc:Work
         rdf:about=""><dc:format>image/svg+xml</dc:format><dc:type
           rdf:resource="http://purl.org/dc/dcmitype/StillImage" /></cc:Work></rdf:RDF></metadata><defs
     id="defs6"><clipPath
       id="clipPath18"
       clipPathUnits="userSpaceOnUse"><path
         id="path20"
         d="m 0,0 1677.97,0 0,1678 L 0,1678 0,0 Z" /></clipPath></defs><g
     transform="matrix(1.25,0,0,-1.25,0,209.75)"
     id="g10"><g
       transform="scale(0.1,0.1)"
       id="g12"><g
         id="g14"><g
           clip-path="url(#clipPath18)"
           id="g16"><path
             id="path22"
             style="fill:#f9a72b;fill-opacity:1;fill-rule:nonzero;stroke:none"
             d="m 838.965,1290.71 c -249.082,0 -451.719,-202.62 -451.719,-451.722 0,-249.066 202.637,-451.797 451.719,-451.797 249.085,0 451.745,202.731 451.745,451.797 0,249.102 -202.66,451.722 -451.745,451.722 m 0,-774.421 c -178.203,0 -322.637,144.461 -322.637,322.699 0,178.202 144.434,322.692 322.637,322.692 178.305,0 322.715,-144.49 322.715,-322.692 0,-178.238 -144.41,-322.699 -322.715,-322.699" /><path
             id="path24"
             style="fill:#f9a72b;fill-opacity:1;fill-rule:nonzero;stroke:none"
             d="m 838.965,1419.77 c 35.726,0 64.633,28.98 64.633,64.65 l 0,129.06 c 0,35.7 -28.907,64.57 -64.633,64.57 -35.606,0 -64.473,-28.87 -64.473,-64.57 l 0,-129.06 c 0,-35.67 28.867,-64.65 64.473,-64.65" /><path
             id="path26"
             style="fill:#f9a72b;fill-opacity:1;fill-rule:nonzero;stroke:none"
             d="m 838.965,258.168 c -35.606,0 -64.473,-28.949 -64.473,-64.527 l 0,-129.1097 C 774.492,28.9102 803.359,0 838.965,0 c 35.726,0 64.633,28.9102 64.633,64.5313 l 0,129.1097 c 0,35.578 -28.907,64.527 -64.633,64.527" /><path
             id="path28"
             style="fill:#f9a72b;fill-opacity:1;fill-rule:nonzero;stroke:none"
             d="m 1340.94,1249.77 91.25,91.29 c 25.24,25.19 25.24,66.01 0,91.21 -25.19,25.23 -66.09,25.23 -91.25,0 l -91.29,-91.21 c -25.19,-25.2 -25.19,-66.13 0,-91.29 25.16,-25.27 66.06,-25.27 91.29,0" /><path
             id="path30"
             style="fill:#f9a72b;fill-opacity:1;fill-rule:nonzero;stroke:none"
             d="m 337.09,428.281 -91.309,-91.32 c -25.176,-25.16 -25.176,-66.063 0,-91.293 25.157,-25.199 66.035,-25.199 91.309,0 l 91.211,91.293 c 25.195,25.309 25.195,66.051 0,91.32 -25.176,25.16 -66.055,25.239 -91.211,0" /><path
             id="path32"
             style="fill:#f9a72b;fill-opacity:1;fill-rule:nonzero;stroke:none"
             d="m 258.145,838.988 c 0,35.664 -28.946,64.571 -64.551,64.571 l -129.0042,0 C 28.8672,903.559 0,874.652 0,838.988 0,803.363 28.8672,774.535 64.5898,774.535 l 129.0042,0 c 35.605,0 64.551,28.828 64.551,64.453" /><path
             id="path34"
             style="fill:#f9a72b;fill-opacity:1;fill-rule:nonzero;stroke:none"
             d="m 1613.44,903.559 -129.06,0 c -35.59,0 -64.61,-28.907 -64.61,-64.532 0,-35.664 29.02,-64.531 64.61,-64.531 l 129.06,0 c 35.63,0 64.53,28.867 64.53,64.531 0,35.625 -28.9,64.532 -64.53,64.532" /><path
             id="path36"
             style="fill:#f9a72b;fill-opacity:1;fill-rule:nonzero;stroke:none"
             d="m 336.934,1249.77 c 25.234,-25.27 66.074,-25.27 91.269,0 25.293,25.16 25.293,66.09 0,91.29 l -91.269,91.21 c -25.235,25.23 -65.996,25.23 -91.289,0 -25.157,-25.2 -25.157,-66.02 0,-91.21 l 91.289,-91.29" /><path
             id="path38"
             style="fill:#f9a72b;fill-opacity:1;fill-rule:nonzero;stroke:none"
             d="m 1341.06,428.32 c -25.35,25.16 -66.13,25.16 -91.29,0 -25.23,-25.23 -25.31,-66.05 0,-91.289 l 91.29,-91.211 c 25.2,-25.269 66.05,-25.269 91.21,0 25.2,25.2 25.2,66.059 0,91.211 l -91.21,91.289" /></g></g></g></g></svg>