<svg xmlns="http://www.w3.org/2000/svg" xmlns:xlink="http://www.w3.org/1999/xlink" width="40" height="40" viewBox="0 0 40 40">
	<defs>
		<path id="a" d="M13.799 8.946a1.79 1.79 0 1 1-.928-3.459 1.79 1.79 0 0 1 .928 3.459zm5.298 12.025c.16.27.329.553.503.835.126.206.257.409.388.61a6.598 6.598 0 0 1-5.629 3.159 6.608 6.608 0 0 1-6.609-6.61c0-2.309 1.186-4.339 2.982-5.52.031.57.093 1.148.18 1.703a5.126 5.126 0 0 0-1.701 3.818 5.153 5.153 0 0 0 5.148 5.147 5.152 5.152 0 0 0 4.738-3.142zm1.651-4.431l2.976 5.64c.15.563-.17 1.14-.715 1.287-.546.145-1.112-.193-1.263-.757l-2.702-4.62-3.933.838c-.852.228-1.658-.274-1.907-1.204l-1.592-5.94c-.262-.978.293-1.977 1.24-2.23.741-.2 1.5.12 1.922.735l.616 2.151 3.632.542c.497.075.838.552.762 1.066-.077.514-.543.87-1.04.796l-2.785-.415.554 1.933 2.972-.579c.546-.146 1.111.192 1.263.757z"/>
	</defs>
	<g fill="none" fill-rule="evenodd">
		<path fill="#B0C82C" d="M0 0h40v40H0z"/>
		<g transform="translate(4.615 4.615)">
			<mask id="b" fill="#fff">
				<use xlink:href="#a"/>
			</mask>
			<use fill="#1A171B" xlink:href="#a"/>
			<g fill="#FFF" mask="url(#b)">
				<path d="M0 0h31v31H0z"/>
			</g>
		</g>
	</g>
</svg>