<?xml version="1.0" encoding="utf-8"?>
<!-- Generator: Adobe Illustrator 16.0.0, SVG Export Plug-In . SVG Version: 6.00 Build 0)  -->
<!DOCTYPE svg PUBLIC "-//W3C//DTD SVG 1.1//EN" "http://www.w3.org/Graphics/SVG/1.1/DTD/svg11.dtd">
<svg version="1.1" id="Ebene_1" xmlns="http://www.w3.org/2000/svg" xmlns:xlink="http://www.w3.org/1999/xlink" x="0px" y="0px"
	 width="308.605px" height="149.08px" viewBox="0 0 308.605 149.08" enable-background="new 0 0 308.605 149.08"
	 xml:space="preserve">
<g>
	<g>
		<g>
		</g>
	</g>
</g>
<path fill="#ED1C24" d="M0,147.81h30.724c16.047,0,24.177-9.607,24.177-20.48c0-6.652-3.167-12.775-9.291-16.471
	c4.434-3.484,6.757-8.129,6.757-13.094c0-8.973-7.496-16.258-23.333-16.258H0V147.81L0,147.81z M21.01,107.269V95.867h4.646
	c3.907,0,5.702,2.109,5.702,5.066c0,2.746-1.478,5.281-4.224,6.336H21.01L21.01,107.269z M21.01,133.453v-12.881h5.597
	c4.856,0,7.179,2.324,7.179,6.123c0,4.012-2.533,6.758-7.179,6.758H21.01L21.01,133.453z M63.558,147.81h21.011v-23.861h1.901
	c3.378,0,4.223,2.641,5.911,7.604l5.597,16.258h20.905v-1.688l-7.18-18.16c-1.899-4.539-3.695-7.391-6.229-8.658
	c7.18-3.801,11.085-10.348,11.085-17.631c0-11.615-8.234-20.166-24.599-20.166H63.558V147.81L63.558,147.81z M84.569,109.591V96.289
	h3.484c4.857,0,7.179,2.641,7.179,6.334c0,4.225-2.428,6.969-7.179,6.969H84.569L84.569,109.591z M126.061,124.478
	c0,18.688,11.614,24.602,27.662,24.602c16.049,0,27.978-6.02,27.978-24.602V81.507h-21.116v41.916c0,5.912-1.9,8.762-6.862,8.762
	c-4.223,0-6.652-2.744-6.652-8.762V81.507h-21.01V124.478L126.061,124.478z M190.464,114.871c0,24.916,13.513,34.209,31.779,34.209
	c6.441,0,12.776-1.27,19.321-4.225l-3.589-14.148h-2.112c-4.013,1.689-6.756,2.535-10.452,2.535
	c-7.918,0-13.408-5.596-13.408-18.793c0-12.459,6.545-18.16,14.042-18.16c2.745,0,5.491,0.211,8.764,1.266h2.11l3.589-14.357
	c-5.7-2.111-11.297-2.955-16.892-2.955C205.983,80.242,190.464,90.587,190.464,114.871L190.464,114.871z M271.969,113.814
	l15.31,33.996h21.327v-2.111l-15.31-32.73l14.678-29.35v-2.111H287.49L271.969,113.814L271.969,113.814z M250.114,147.81h21.011
	V81.507h-21.011V147.81L250.114,147.81z"/>
<path fill="#ED1C24" d="M0,68.627h21.01V2.322H0V68.627L0,68.627z M33.257,68.627h20.798V43.182l1.479,2.429l15.415,23.017h18.055
	V2.322H68.31v25.656l-1.478-2.429L51.312,2.322H33.257V68.627L33.257,68.627z M102.412,68.627h20.799V43.182l1.479,2.429
	l15.415,23.017h18.053V2.322h-20.693v25.656l-1.479-2.429L120.466,2.322h-18.054V68.627L102.412,68.627z M166.711,64.404
	c5.594,3.272,13.619,5.49,22.276,5.49c17.421,0,28.19-8.025,28.19-23.017c0-24.494-28.19-18.582-28.19-26.817
	c0-2.534,2.322-4.012,6.969-4.012c3.694,0,7.813,0.95,11.402,2.745h2.111l5.807-12.669c-5.279-3.168-13.303-5.068-20.798-5.068
	c-15.203,0-26.079,7.813-26.079,21.328c0,25.443,28.402,18.688,28.402,27.45c0,3.379-3.273,5.068-7.813,5.068
	c-4.645,0-10.03-1.162-14.465-3.59h-2.11L166.711,64.404L166.711,64.404z M222.666,27.24h2.113l8.023-1.268l7.601-23.861V0
	l-13.937,2.322l-3.801,22.805V27.24L222.666,27.24z"/>
</svg>
