<?xml version="1.0" encoding="UTF-8"?>
<svg width="40px" height="40px" viewBox="0 0 40 40" version="1.1" xmlns="http://www.w3.org/2000/svg" xmlns:xlink="http://www.w3.org/1999/xlink">
    <!-- Generator: sketchtool 51.2 (57519) - http://www.bohemiancoding.com/sketch -->
    <title>BD7BBAA7-DE0E-41B8-ACD2-29A248898F80</title>
    <desc>Created with sketchtool.</desc>
    <defs>
        <path d="M19.515,10 L16.266,16.583 L9,17.639 L14.257,22.764 L13.017,30 L19.515,26.583 L26.013,30 L24.772,22.764 L30.03,17.639 L22.764,16.583 L19.515,10 Z M16.228,23.102 L16.406,22.065 L15.653,21.331 L13.299,19.035 L16.553,18.563 L17.594,18.411 L18.059,17.468 L19.515,14.519 L20.971,17.468 L21.437,18.411 L22.477,18.563 L25.731,19.035 L23.376,21.331 L22.623,22.065 L22.801,23.102 L23.357,26.344 L20.446,24.813 L19.515,24.324 L18.584,24.813 L15.673,26.344 L16.228,23.102 Z" id="path-1"></path>
    </defs>
    <g id="symbols" stroke="none" stroke-width="1" fill="none" fill-rule="evenodd">
        <g id="atom/icon/diverse/star_filled_outline">
            <g id="icon">
                <mask id="mask-2" fill="white">
                    <use xlink:href="#path-1"></use>
                </mask>
                <use id="Fill-1" fill="#f2f2f2" xlink:href="#path-1"></use>
                <g id="atom/color/black" mask="url(#mask-2)" fill="#f2f2f2">
                    <polygon id="color" points="0 0 40 0 40 40 0 40"></polygon>
                </g>
            </g>
        </g>
    </g>
</svg>