<?xml version="1.0" encoding="utf-8"?>
<!-- Generator: Adobe Illustrator 16.0.0, SVG Export Plug-In . SVG Version: 6.00 Build 0)  -->
<!DOCTYPE svg PUBLIC "-//W3C//DTD SVG 1.1//EN" "http://www.w3.org/Graphics/SVG/1.1/DTD/svg11.dtd">
<svg version="1.1" id="Layer_1" xmlns="http://www.w3.org/2000/svg" xmlns:xlink="http://www.w3.org/1999/xlink" x="0px" y="0px"
	 width="146.445px" height="146.457px" viewBox="0 645.543 146.445 146.457" enable-background="new 0 645.543 146.445 146.457"
	 xml:space="preserve">
<g id="surface1">
	<path fill="#F2EF1D" d="M54.914,755.375l9.156,9.16L54.914,792l27.461-27.465l-9.156-9.16l9.156-18.301L54.914,755.375"/>
	<g>
		<defs>
			<rect id="SVGID_1_" y="645.543" width="146.445" height="113.457"/>
		</defs>
		<clipPath id="SVGID_2_">
			<use xlink:href="#SVGID_1_"  overflow="visible"/>
		</clipPath>
		<g clip-path="url(#SVGID_2_)">
			<path fill="#231F20" d="M133.164,694.867c-5.281-3.84-11.734-6.18-18.75-6.18c-1.523,0-3.023,0.105-4.516,0.324
				c-8.555-11.641-22.035-18.629-36.676-18.629c-9.758,0-18.969,3.16-26.582,8.676c2.137-6.531,8.211-11.297,15.461-11.297
				c2.223,0,4.309,0.449,6.219,1.254c4.348-8.477,13.055-14.32,23.207-14.32c10.156,0,18.871,5.844,23.199,14.32
				c1.918-0.805,4.023-1.254,6.211-1.254c9.043,0,16.352,7.32,16.352,16.34C137.289,688.25,135.699,691.992,133.164,694.867
				 M146.445,684.102c0-14.051-11.438-25.488-25.508-25.488c-0.68,0-1.359,0.02-2.039,0.082
				c-6.617-8.254-16.574-13.152-27.371-13.152c-10.785,0-20.75,4.898-27.371,13.152c-0.68-0.063-1.363-0.082-2.055-0.082
				c-14.051,0-25.492,11.438-25.492,25.488c0,1.477,0.195,2.902,0.43,4.305c-0.16,0.207-0.336,0.391-0.484,0.605
				c-1.504-0.219-3.004-0.324-4.516-0.324C14.375,688.688,0,703.055,0,720.727c0,17.66,14.375,32.027,32.039,32.027
				c3.91,0,7.742-0.715,11.355-2.09c0.305,0.266,0.691,0.453,1.016,0.727l8.094-5.406c-2.699-1.906-5.223-4.035-7.328-6.574
				c-3.719,2.621-8.246,4.195-13.137,4.195c-12.648,0-22.883-10.238-22.883-22.879c0-12.637,10.234-22.883,22.883-22.883
				c3.082,0,6.016,0.625,8.703,1.73c0.164-0.309,0.352-0.57,0.516-0.867c1.617-2.941,3.59-5.625,5.914-8.02
				c6.602-6.836,15.773-11.152,26.051-11.152c14.215,0,26.41,8.195,32.477,20.039c1.617-0.664,3.34-1.09,5.117-1.387l3.598-0.344
				c3.523,0,6.82,0.863,9.805,2.281c3.242,1.551,6.023,3.832,8.203,6.633c3,3.871,4.867,8.684,4.867,13.969
				c0,12.641-10.242,22.879-22.875,22.879c-4.902,0-9.414-1.574-13.148-4.195c-4,4.832-9.273,8.457-15.195,10.746l-1.707,3.414
				l5.215,5.227c4.883-1.902,9.453-4.633,13.484-8.133c3.602,1.375,7.43,2.09,11.352,2.09c17.664,0,32.031-14.367,32.031-32.027
				c0-7.348-2.578-14.047-6.758-19.457C143.848,696.727,146.445,690.742,146.445,684.102"/>
		</g>
	</g>
</g>
</svg>
